<svg width="130" height="26" viewBox="0 0 130 26" fill="none" xmlns="http://www.w3.org/2000/svg">
<path d="M11.0586 0.40625C13.0625 0.40625 14.7969 0.705078 16.2617 1.30273C17.7266 1.88867 18.8574 2.75586 19.6543 3.9043C20.4512 5.05273 20.8496 6.47656 20.8496 8.17578C20.8496 9.69922 20.6211 10.959 20.1641 11.9551C19.7188 12.9395 19.0918 13.748 18.2832 14.3809C17.4863 15.002 16.5488 15.5352 15.4707 15.9805L13.3086 17.2988H4.95898V11.9727H10.9883C11.7148 11.9727 12.3184 11.8555 12.7988 11.6211C13.291 11.3867 13.6543 11.041 13.8887 10.584C14.1348 10.1152 14.2578 9.54102 14.2578 8.86133C14.2578 7.87695 13.9883 7.10938 13.4492 6.55859C12.9102 6.00781 12.1133 5.73242 11.0586 5.73242H7.41992V26H0.828125V0.40625H11.0586ZM9.07227 14.6797H16.0684L21.6934 25.7188V26H14.627L9.07227 14.6797ZM42.1191 26H28.6016V20.6914H42.1191V26ZM30.9395 26H24.3301V0.40625H30.9395V26ZM40.3789 15.4355H28.6016V10.3203H40.3789V15.4355ZM42.1719 5.73242H28.6016V0.40625H42.1719V5.73242ZM61.5781 26H48.7109V20.6914H61.5781V26ZM51.0312 26H44.4395V0.40625H51.0312V26ZM69.6289 26H62.5449L71.9316 0.40625H76.3965L75.623 6.57617L69.6289 26ZM74.4629 6.57617L73.6016 0.40625H78.1191L87.5586 26H80.4746L74.4629 6.57617ZM80.4043 21.7109H67.2734V16.3848H80.4043V21.7109ZM110.885 26H104.311L95.8555 11.1992V26H89.2637V0.40625H95.8555L104.311 15.207V0.40625H110.885V26Z" fill="white"/>
<path d="M118.883 9.33594L113.205 7.78906L114.4 4.2207L119.955 6.57617L119.48 0.40625H123.453L122.979 6.69922L128.375 4.43164L129.57 8.03516L123.805 9.56445L127.619 14.1523L124.42 16.3848L121.256 11.2344L118.092 16.1914L114.875 14.0469L118.883 9.33594Z" fill="#FF1C00"/>
</svg>
